<svg xmlns="http://www.w3.org/2000/svg" viewBox="0 0 320 50">
  <defs>
    <linearGradient id="hg1" x1="100%" x2="50%" y1="9.946%" y2="50%">
      <stop offset="0%" stop-color="#4e549f" />
      <stop offset="100%" stop-color="#636fc1" />
    </linearGradient>
    <linearGradient id="hg2" x1="50%" x2="50%" y1="0%" y2="100%">
      <stop offset="0%" stop-color="#7096ff" />
      <stop offset="100%" stop-color="#636fc1" />
    </linearGradient>
  </defs>
  <g fill="url(#hg1)" transform="translate(2,5) scale(0.2)">
    <path d="M144.2,63.9L16.8,191.6h17.9L153.2,72.9c0.4-0.4,0.4-1.1,0-1.5l-7.5-7.5C145.3,63.5,144.6,63.5,144.2,63.9z"/>
    <path d="M19.1,98.6l91.1-91.3H92.4L10.1,89.5c-0.4,0.4-0.4,1.1,0,1.5l7.5,7.5C18,99,18.7,99,19.1,98.6z"/>
    <path d="M162.3,82L52.9,191.6h17.9L171.3,91c0.4-0.4,0.4-1.1,0-1.5l-7.5-7.5C163.4,81.6,162.7,81.6,162.3,82z"/>
    <path d="M180.4,100.1l-91.3,91.5h17.9l82.5-82.5c0.4-0.4,0.4-1.1,0-1.5l-7.5-7.5C181.5,99.6,180.8,99.6,180.4,100.1z"/>
    <path d="M28.2,109.1l7.5,7.5c0.4,0.4,1.1,0.4,1.5,0L146.4,7.2h-17.9L28.2,107.6C27.8,108,27.8,108.7,28.2,109.1z"/>
    <path d="M46.3,127.2l7.5,7.5c0.4,0.4,1.1,0.4,1.5,0L182.6,7.2h-17.9L46.3,125.7C45.8,126.1,45.8,126.8,46.3,127.2z"/>
  </g>
  <text x="52" y="35" font-family="'Poppins','Segoe UI',sans-serif" font-size="26" font-weight="600" fill="#2e3862">Oklavier</text>
</svg>
