<svg xmlns="http://www.w3.org/2000/svg" viewBox="0 0 1080 1080">
  <defs>
    <linearGradient id="fg" x1="0%" x2="100%" y1="0%" y2="100%">
      <stop offset="0%" stop-color="#7096ff"/>
      <stop offset="100%" stop-color="#65d5c5"/>
    </linearGradient>
  </defs>
  <g transform="matrix(0.18 0 0 0.17 540 540)">
    <path transform="translate(-5061.17, -5084.07)" fill="url(#fg)" d="M 3235 7886 C 3044 7850 2884 7784 2755 7688 C 2546 7530 2405 7326 2343 7090 C 2319 7001 2317 6972 2309 6650 C 2298 6179 2299 3487 2311 3320 C 2321 3163 2344 3062 2399 2939 C 2535 2630 2799 2399 3109 2316 C 3285 2269 3284 2269 5125 2272 L 6865 2275 L 6966 2302 C 7170 2356 7330 2443 7468 2574 C 7642 2739 7749 2929 7799 3163 C 7820 3261 7820 3264 7821 5083 C 7821 6381 7818 6921 7810 6960 C 7752 7250 7664 7418 7479 7596 C 7342 7726 7186 7812 6981 7869 L 6885 7895 L 5095 7897 C 3674 7898 3291 7896 3235 7886 z M 5570 7419 C 5652 7406 5680 7389 5680 7351 C 5680 7335 5674 7318 5667 7312 C 5660 7306 5594 7285 5520 7265 C 5446 7245 5336 7210 5275 7188 C 4950 7069 4821 6961 4594 6617 C 4417 6350 4116 5889 3990 5693 C 3932 5604 3882 5531 3877 5530 C 3866 5530 3822 5635 3794 5730 C 3759 5846 3750 6027 3774 6120 C 3824 6315 3937 6437 4139 6510 L 4213 6537 L 4266 6631 C 4400 6867 4554 7062 4685 7162 C 4878 7308 5048 7388 5239 7420 C 5308 7432 5496 7431 5570 7419 z M 4370 7154 C 4370 7151 4341 7102 4307 7047 C 4272 6991 4235 6931 4225 6913 C 4209 6886 4198 6880 4161 6875 C 4007 6854 3842 6789 3731 6705 C 3607 6610 3492 6431 3454 6271 C 3430 6165 3432 5999 3459 5895 C 3484 5803 3569 5619 3629 5532 C 3694 5436 3771 5359 3959 5201 C 4207 4995 4315 4904 4490 4755 C 4574 4684 4686 4590 4739 4547 C 4901 4414 4940 4367 4940 4304 C 4940 4220 4879 4140 4816 4140 C 4778 4140 4772 4145 4445 4425 C 4262 4581 4052 4759 3705 5051 C 3490 5232 3341 5438 3240 5694 C 3121 5996 3141 6322 3297 6609 C 3365 6736 3413 6793 3528 6885 C 3703 7025 3903 7114 4110 7144 C 4208 7158 4370 7164 4370 7154 z M 6102 7126 C 6329 7082 6544 6966 6700 6803 C 6802 6698 6870 6598 6921 6481 C 6984 6334 7002 6246 7007 6060 L 7012 5896 L 6979 5921 C 6960 5935 6901 5979 6848 6019 C 6754 6090 6751 6093 6745 6138 C 6728 6272 6689 6377 6614 6492 C 6510 6653 6355 6768 6150 6836 C 6075 6861 6050 6864 5930 6864 C 5815 6865 5784 6861 5720 6842 C 5597 6803 5479 6736 5394 6657 C 5294 6564 5228 6477 5016 6160 C 4618 5565 4459 5333 4426 5299 C 4404 5277 4373 5258 4346 5250 C 4305 5239 4297 5240 4257 5259 C 4233 5271 4208 5290 4201 5303 C 4179 5346 4171 5391 4181 5417 C 4190 5440 4415 5787 4430 5800 C 4440 5809 4560 5983 4695 6185 C 4725 6229 4767 6290 4789 6320 C 4811 6350 4867 6431 4914 6500 C 5109 6791 5257 6930 5485 7040 C 5572 7082 5684 7119 5770 7133 C 5831 7143 6034 7139 6102 7126 z M 5945 6535 C 6164 6489 6333 6321 6386 6095 L 6404 6019 L 6553 5937 C 6932 5728 7171 5477 7260 5195 C 7291 5097 7297 4935 7276 4810 C 7255 4686 7234 4616 7214 4599 C 7188 4578 7134 4583 7104 4611 C 7052 4658 7040 4702 7040 4851 C 7040 5025 7029 5084 6974 5197 C 6939 5270 6913 5307 6845 5378 C 6760 5468 6728 5491 6477 5646 C 6354 5722 6105 5913 5687 6255 C 5464 6437 5470 6421 5591 6485 C 5708 6546 5818 6562 5945 6535 z M 5421 5982 C 5642 5788 6029 5459 6310 5223 C 6456 5102 6613 4963 6658 4916 C 6799 4769 6911 4573 6961 4383 C 6988 4284 6998 4061 6980 3954 C 6948 3753 6830 3530 6671 3370 C 6456 3153 6157 3043 5809 3052 L 5683 3055 L 5761 3185 L 5840 3315 L 5933 3322 C 6182 3341 6407 3454 6550 3633 C 6616 3716 6686 3858 6706 3950 C 6727 4048 6728 4216 6706 4298 C 6665 4459 6588 4589 6458 4722 C 6393 4787 6135 5009 5687 5384 C 5444 5587 5203 5799 5187 5824 C 5158 5868 5147 5932 5160 5981 C 5173 6030 5236 6100 5267 6100 C 5278 6100 5347 6047 5421 5982 z M 3045 5576 C 3064 5568 3091 5544 3107 5519 C 3134 5478 3135 5474 3141 5286 C 3146 5114 3150 5087 3174 5015 C 3241 4816 3360 4685 3624 4520 C 3841 4384 3915 4331 4146 4153 C 4251 4072 4396 3960 4468 3905 C 4540 3850 4598 3801 4596 3795 C 4595 3790 4565 3766 4531 3743 C 4443 3683 4382 3667 4250 3672 C 4148 3675 4139 3677 4059 3717 C 3905 3793 3813 3909 3770 4077 C 3761 4114 3754 4122 3714 4140 C 3637 4173 3440 4294 3351 4361 C 3064 4578 2900 4847 2883 5130 C 2879 5201 2883 5255 2898 5346 C 2924 5494 2947 5560 2980 5577 C 3011 5593 3004 5593 3045 5576 z M 5130 5292 C 5182 5272 5234 5210 5251 5147 C 5266 5092 5249 5009 5214 4962 C 5133 4856 4944 4865 4865 4978 C 4839 5017 4835 5030 4836 5090 C 4836 5183 4872 5243 4949 5283 C 5012 5314 5064 5317 5130 5292 z M 5811 4950 C 5854 4938 5898 4894 5905 4855 C 5913 4815 5908 4808 5671 4467 C 5440 4137 5343 3997 5180 3760 C 5117 3669 5039 3559 5006 3515 C 4845 3303 4638 3163 4397 3103 C 4305 3080 4281 3078 4150 3083 C 3988 3088 3901 3108 3755 3175 C 3544 3272 3374 3440 3262 3665 C 3193 3805 3163 3916 3150 4083 C 3137 4256 3132 4254 3285 4143 C 3407 4054 3415 4045 3422 4007 C 3476 3709 3711 3447 3992 3373 C 4069 3353 4243 3350 4320 3369 C 4350 3376 4422 3404 4480 3432 C 4576 3478 4594 3491 4690 3589 C 4766 3665 4829 3744 4916 3870 C 4982 3966 5051 4065 5069 4090 C 5087 4115 5130 4178 5166 4230 C 5246 4348 5285 4404 5389 4550 C 5434 4613 5486 4689 5505 4717 C 5567 4812 5659 4917 5692 4933 C 5720 4946 5738 4952 5770 4959 C 5773 4959 5791 4955 5811 4950 z M 6283 4565 C 6345 4440 6364 4361 6364 4215 C 6364 4119 6360 4081 6342 4024 C 6282 3828 6103 3677 5915 3663 C 5853 3658 5836 3653 5824 3636 C 5815 3624 5751 3527 5681 3420 C 5610 3313 5522 3189 5484 3145 C 5274 2904 4929 2753 4636 2774 C 4470 2787 4410 2811 4410 2865 C 4410 2898 4435 2909 4600 2954 C 4899 3035 5118 3153 5264 3311 C 5314 3364 5371 3445 5655 3855 C 5697 3916 5797 4060 5877 4175 C 5958 4291 6057 4435 6098 4495 C 6204 4651 6221 4673 6230 4663 C 6235 4659 6259 4615 6283 4565 z"/>
  </g>
</svg>
